<?xml version="1.0" standalone="no"?>
<!DOCTYPE svg PUBLIC "-//W3C//DTD SVG 20010904//EN"
 "http://www.w3.org/TR/2001/REC-SVG-20010904/DTD/svg10.dtd">
<svg version="1.0" xmlns="http://www.w3.org/2000/svg"
 width="627.000000pt" height="619.000000pt" viewBox="0 0 627.000000 619.000000"
 preserveAspectRatio="xMidYMid meet">

<g transform="translate(0.000000,619.000000) scale(0.100000,-0.100000)"
fill="#000000" stroke="none">
<path d="M2900 6003 c-572 -44 -1164 -277 -1609 -633 -475 -379 -810 -862
-990 -1425 -214 -670 -177 -1407 105 -2053 240 -549 637 -1010 1150 -1333 117
-74 380 -204 522 -259 504 -195 1106 -246 1652 -139 639 124 1218 452 1656
939 188 210 367 482 483 735 258 564 332 1188 211 1785 -88 438 -266 841 -523
1188 -118 161 -331 387 -468 497 -184 150 -259 202 -409 290 -385 226 -808
363 -1255 405 -101 9 -420 11 -525 3z m640 -308 c428 -67 784 -205 1135 -440
141 -95 241 -178 388 -323 128 -125 197 -207 305 -360 70 -98 187 -296 215
-364 l15 -36 -91 -88 c-51 -49 -153 -147 -227 -219 -382 -368 -566 -543 -572
-546 -6 -4 -146 139 -637 651 -124 129 -290 300 -368 380 l-142 145 -3 280
c-3 261 -5 285 -26 350 -57 172 -132 273 -239 322 -80 37 -145 41 -227 13
-179 -59 -328 -246 -569 -713 -37 -72 -63 -113 -68 -105 -3 7 -10 40 -14 73
-9 77 -44 184 -94 283 -21 42 -42 88 -46 101 -14 44 -79 146 -124 195 -51 54
-116 102 -176 129 l-40 18 88 39 c262 117 518 188 817 226 144 18 557 12 700
-11z m-1846 -729 c75 -36 104 -57 157 -113 91 -97 159 -240 179 -378 11 -81
12 -775 1 -1885 -4 -421 -6 -769 -4 -775 2 -5 30 -30 62 -55 32 -25 116 -93
187 -151 71 -58 138 -110 149 -116 20 -11 20 -7 20 1316 l0 1328 78 159 c43
87 89 176 103 197 13 20 36 55 50 77 15 22 71 87 125 144 99 104 159 146 210
146 47 0 118 -31 140 -61 l20 -29 -1 -1647 c0 -906 -3 -1656 -6 -1668 -2 -11
-1 -127 4 -257 10 -272 8 -267 112 -349 30 -23 57 -45 60 -49 3 -3 32 -27 65
-52 50 -38 205 -163 280 -226 11 -9 32 -27 47 -38 l27 -21 -52 -11 c-537 -117
-1176 -48 -1681 182 -407 186 -801 506 -1064 864 -532 727 -654 1669 -327
2527 60 159 211 434 320 583 69 95 185 232 205 243 120 62 371 157 418 158 13
1 65 -19 116 -43z m2068 -903 c102 -104 254 -260 339 -348 85 -88 230 -238
323 -334 l168 -174 -93 -93 c-52 -52 -99 -94 -106 -94 -6 0 -18 8 -25 19 -7
10 -121 130 -254 267 -466 482 -524 545 -529 567 -4 19 -12 377 -8 377 0 0 84
-84 185 -187z m1953 -187 l36 -109 -23 -25 c-24 -26 -173 -171 -388 -377 -69
-66 -177 -171 -241 -233 l-116 -113 -82 88 c-44 48 -81 90 -81 93 0 8 217 220
455 445 354 334 389 365 397 352 4 -6 24 -61 43 -121z m-1663 -726 c119 -124
220 -229 224 -233 7 -7 -153 -177 -167 -177 -6 0 -110 105 -401 405 l-116 120
-4 183 -3 183 125 -128 c69 -70 223 -229 342 -353z m1768 279 c25 -171 25
-172 -9 -206 -39 -39 -393 -377 -466 -446 -33 -31 -63 -57 -66 -57 -6 0 -141
139 -167 172 -12 15 4 34 145 171 87 84 196 189 243 232 47 44 96 91 110 105
81 81 182 171 186 167 2 -2 13 -64 24 -138z m-1033 -426 l82 -88 -72 -73 c-39
-41 -84 -82 -99 -93 l-28 -20 -82 86 -83 87 95 94 c52 52 97 94 100 94 3 0 42
-39 87 -87z m-888 -276 l96 -99 -95 -90 c-52 -50 -148 -143 -213 -206 -64 -63
-119 -113 -121 -111 -1 2 1 99 5 214 4 116 8 296 8 401 1 105 4 194 8 198 4 4
54 -41 112 -101 57 -59 147 -152 200 -206z m1942 143 c-6 -77 -20 -193 -31
-257 -20 -117 -78 -343 -87 -343 -10 0 -76 64 -207 198 l-129 132 24 22 c80
72 151 138 283 267 83 79 152 139 154 133 2 -7 -1 -75 -7 -152z m-765 -167
l92 -98 -96 -92 c-53 -51 -99 -92 -102 -93 -4 0 -46 43 -94 96 l-89 96 94 94
c51 52 96 94 98 94 3 0 46 -44 97 -97z m-596 2 l85 -85 -75 -76 c-110 -111
-100 -111 -191 -13 -43 46 -78 87 -79 92 0 8 161 167 170 167 3 0 43 -38 90
-85z m-309 -262 c35 -38 73 -77 82 -89 17 -20 11 -26 -305 -330 -177 -170
-334 -321 -347 -336 -14 -16 -29 -28 -33 -28 -5 0 -8 76 -8 168 l0 168 93 90
c50 49 170 164 265 257 95 92 176 167 180 167 4 0 37 -30 73 -67z m597 -39
l90 -96 -71 -66 c-39 -37 -80 -76 -91 -86 -19 -19 -20 -19 -108 75 -48 52 -88
97 -88 101 0 4 28 34 61 65 34 32 71 68 82 81 11 12 24 22 28 22 4 0 48 -43
97 -96z m654 -61 c80 -82 166 -172 192 -200 l48 -53 -17 -42 c-34 -85 -98
-218 -105 -218 -5 0 -84 80 -177 177 -92 97 -194 203 -225 236 l-58 58 98 95
c53 52 97 94 98 94 1 0 67 -66 146 -147z m-942 -219 l94 -96 -80 -76 c-43 -42
-140 -135 -214 -207 -422 -407 -687 -653 -693 -644 -15 20 -28 106 -32 209
l-5 125 93 85 c50 46 205 193 342 325 336 324 389 374 396 375 3 0 48 -43 99
-96z m665 -111 c93 -98 203 -213 244 -255 l74 -77 -57 -83 c-31 -46 -64 -92
-72 -103 -16 -22 -7 -31 -388 365 l-159 165 89 82 c49 46 91 83 94 83 3 0 82
-80 175 -177z m-410 -156 c28 -28 149 -154 269 -280 l218 -227 -63 -71 c-110
-125 -308 -297 -459 -401 -163 -112 -518 -299 -563 -298 -7 1 -35 20 -64 43
-29 23 -131 105 -227 182 -153 123 -197 165 -168 165 11 0 145 121 297 269
388 377 696 671 705 671 3 0 28 -24 55 -53z"/>
</g>
</svg>
